# xmcd CD database file
#
# Track frame offsets:
#	225
#	22153
#	42163
#	53190
#	72852
#	91183
#	107811
#	128718
#	144599
#	163926
#	177282
#	195217
#	212585
#
# Disc length: 3123 seconds
#
# Revision: 0
# Processed by: cddbd v1.5.2PL0 Copyright (c) Steve Scherf et al.
# Submitted via: CDex 1.72
#
DISCID=b40c300d
DTITLE=Gomo, Dennis [CDN-Hiding Out In Limbo-blues) - Hiding Out In Limbo
DYEAR=1900
DGENRE=Blues
TTITLE0=Let Me In
TTITLE1=Hiding Out In Limbo
TTITLE2=Key To The Highway
TTITLE3=Take Me Some Time
TTITLE4=Outskirts Of Town
TTITLE5=Eyes Wide Open
TTITLE6=Hooboo Man Blues
TTITLE7=She Caught The Katy
TTITLE8=Things Have Changed
TTITLE9=Take Sick and Die
TTITLE10=Barbeque Blues
TTITLE11=That's Alright
TTITLE12=Mountaintop Blues
EXTD=
EXTT0=
EXTT1=
EXTT2=
EXTT3=
EXTT4=
EXTT5=
EXTT6=
EXTT7=
EXTT8=
EXTT9=
EXTT10=
EXTT11=
EXTT12=
PLAYORDER=
